<svg width="7" height="6" viewBox="0 0 7 6" fill="none" xmlns="http://www.w3.org/2000/svg">
<path d="M1.30505 5.15863C1.50807 5.34582 2.05893 5.07859 2.53548 4.56173L5.12396 1.75427C5.6005 1.23741 5.82221 0.666709 5.61919 0.479519C5.41616 0.292329 4.8653 0.559559 4.38876 1.07641L1.80028 3.88388C1.3237 4.4007 1.10202 4.97144 1.30505 5.15863Z" fill="white"/>
<path d="M5.77464 5.14586C5.97248 4.95319 5.71998 4.37307 5.21066 3.85007L2.44412 1.00921C1.9348 0.486212 1.36157 0.218437 1.16373 0.4111C0.965895 0.603764 1.21839 1.18389 1.72771 1.70689L4.49425 4.54774C5.00354 5.07078 5.5768 5.33852 5.77464 5.14586Z" fill="white"/>
</svg>
